<svg width="134" height="31" viewBox="0 0 134 31" fill="none" xmlns="http://www.w3.org/2000/svg">
    <g clip-path="url(#clip0)">
        <path d="M40.6643 9.53253C41.8948 10.2127 42.86 11.1729 43.5606 12.4137C44.2606 13.6544 44.6109 15.0845 44.6109 16.7056C44.6109 18.3262 44.2606 19.7617 43.5606 21.0123C42.86 22.2632 41.8948 23.2284 40.6643 23.9086C39.4338 24.5891 38.0383 24.9292 36.4776 24.9292C34.3165 24.9292 32.6058 24.2088 31.3454 22.7677V30.5415H27.5936V8.69221H31.1654V10.793C31.7853 10.0328 32.5504 9.46268 33.4613 9.08203C34.3715 8.70244 35.3769 8.51194 36.4776 8.51194C38.0383 8.51194 39.4338 8.85237 40.6643 9.53253ZM39.4638 20.3371C40.3539 19.417 40.7994 18.2056 40.7994 16.7056C40.7994 15.2048 40.3539 13.9945 39.4638 13.0741C38.5734 12.154 37.4378 11.6933 36.0574 11.6933C35.1568 11.6933 34.3468 11.899 33.6264 12.3085C32.906 12.7188 32.3356 13.3041 31.9154 14.0643C31.4953 14.8249 31.2854 15.7051 31.2854 16.7056C31.2854 17.7064 31.4953 18.5862 31.9154 19.3465C32.3356 20.1074 32.906 20.6927 33.6264 21.1026C34.3468 21.5125 35.1568 21.7175 36.0574 21.7175C37.4378 21.7175 38.5734 21.2575 39.4638 20.3371"
              fill="#CFCFCF"/>
        <path d="M57.2163 23.8486C56.776 24.2088 56.2409 24.4787 55.6105 24.6593C54.9804 24.8389 54.3151 24.9292 53.6148 24.9292C51.8537 24.9292 50.4934 24.4695 49.5332 23.5484C48.5725 22.6284 48.0924 21.2875 48.0924 19.5264V11.8133H45.4512V8.81184H48.0924V5.15072H51.8439V8.81184H56.1358V11.8133H51.8439V19.4368C51.8439 20.2168 52.034 20.813 52.4143 21.2229C52.7942 21.6328 53.3446 21.8378 54.0649 21.8378C54.9053 21.8378 55.6055 21.6177 56.1657 21.1774L57.2163 23.8486Z"
              fill="#CFCFCF"/>
        <path d="M59.7073 8.69214H63.4591V24.7188H59.7073V8.69214Z" fill="#CFCFCF"/>
        <path d="M92.2107 10.2673C93.3911 11.4382 93.9813 13.1936 93.9813 15.535V24.7185H90.2299V16.0151C90.2299 14.6146 89.9195 13.5591 89.2996 12.8486C88.6791 12.1388 87.7887 11.7829 86.6284 11.7829C85.3679 11.7829 84.3572 12.1988 83.597 13.0285C82.8364 13.8593 82.4564 15.0446 82.4564 16.5852V24.7185H78.705V16.0151C78.705 14.6146 78.3946 13.5591 77.7744 12.8486C77.1542 12.1388 76.2638 11.7829 75.1035 11.7829C73.8226 11.7829 72.8073 12.1935 72.0569 13.0133C71.3065 13.8343 70.9315 15.0249 70.9315 16.5852V24.7185H67.1797V8.69181H70.7513V10.7326C71.3521 10.0123 72.1021 9.46263 73.0027 9.08198C73.9026 8.70204 74.9028 8.51154 76.0038 8.51154C77.2043 8.51154 78.2697 8.73697 79.1999 9.18676C80.1306 9.63726 80.8658 10.3029 81.4059 11.1831C82.0666 10.3428 82.9165 9.68735 83.9572 9.2171C84.9975 8.7472 86.1476 8.51154 87.4087 8.51154C89.4294 8.51154 91.03 9.09715 92.2107 10.2673Z"
              fill="#CFCFCF"/>
        <path d="M97.5829 8.69214H101.335V24.7188H97.5829V8.69214Z" fill="#CFCFCF"/>
        <path d="M110.398 7.85174V8.812H114.81V11.8134H110.518V24.7188H106.767V11.8134H104.125V8.812H106.767V7.79141C106.767 6.07127 107.266 4.71554 108.267 3.72494C109.267 2.73434 110.678 2.2394 112.499 2.2394C113.94 2.2394 115.07 2.52938 115.891 3.1097L114.84 5.93086C114.199 5.49095 113.509 5.27082 112.769 5.27082C111.188 5.27082 110.398 6.13124 110.398 7.85174Z"
              fill="#CFCFCF"/>
        <path d="M133.237 8.69203L125.734 26.0095C125.034 27.7501 124.183 28.9757 123.183 29.6858C122.182 30.396 120.972 30.7512 119.551 30.7512C118.751 30.7512 117.961 30.621 117.18 30.361C116.4 30.1014 115.76 29.7409 115.259 29.2808L116.76 26.5197C117.12 26.8597 117.546 27.1296 118.036 27.33C118.526 27.53 119.021 27.6302 119.521 27.6302C120.182 27.6302 120.727 27.4602 121.158 27.1201C121.588 26.7793 121.983 26.2092 122.343 25.4091L122.613 24.779L115.62 8.69203H119.521L124.564 20.5471L129.636 8.69203H133.237Z"
              fill="#CFCFCF"/>
        <path d="M8.20365 11.0143C7.00668 13.0333 7.60781 15.714 9.55409 17.026C11.6827 18.4611 14.5561 17.8268 15.8917 15.6632C16.8449 14.1188 16.7493 12.2236 15.8032 10.8065L21.5122 1.96064L18.3365 -0.000101336L12.6275 8.84615C10.9116 8.63237 9.14733 9.42259 8.20365 11.0143Z"
              fill="#CFCFCF"/>
        <path d="M21.3394 5.41506L19.0033 9.01021C20.5827 11.5901 20.6497 14.9573 18.8947 17.6586C16.4623 21.4019 11.4377 22.4687 7.69398 20.0359C3.95066 17.6035 2.88421 12.5789 5.31697 8.83559C7.07169 6.13472 10.1761 4.82803 13.1751 5.22279L15.5112 1.62799C10.5127 0.165724 4.93209 2.06296 1.95182 6.64907C-1.34207 11.7185 -0.34582 18.3585 4.02792 22.2694L2.30566 24.8693L5.48136 26.8301L7.15776 24.2996C12.5055 26.6978 18.9684 24.9096 22.2595 19.8447C25.2394 15.2586 24.706 9.38839 21.3394 5.41506"
              fill="#CFCFCF"/>
        <path d="M59.8875 5.40555C59.4268 4.97551 59.1971 4.44035 59.1971 3.79935C59.1971 3.15941 59.4268 2.62425 59.8875 2.19386C60.3476 1.76418 60.9176 1.54898 61.5981 1.54898C62.278 1.54898 62.8484 1.7543 63.3088 2.16388C63.7688 2.57451 63.9992 3.08992 63.9992 3.70975C63.9992 4.3698 63.7741 4.92507 63.3239 5.37556C62.8738 5.82571 62.2981 6.05078 61.5981 6.05078C60.9176 6.05078 60.3476 5.83594 59.8875 5.40555Z"
              fill="#CFCFCF"/>
        <path d="M97.7632 5.40555C97.3021 4.97551 97.0728 4.44035 97.0728 3.79935C97.0728 3.15941 97.3021 2.62425 97.7632 2.19386C98.2232 1.76418 98.7933 1.54898 99.4738 1.54898C100.153 1.54898 100.724 1.7543 101.184 2.16388C101.644 2.57451 101.874 3.08992 101.874 3.70975C101.874 4.3698 101.65 4.92507 101.199 5.37556C100.749 5.82571 100.174 6.05078 99.4738 6.05078C98.7933 6.05078 98.2232 5.83594 97.7632 5.40555Z"
              fill="#CFCFCF"/>
    </g>
    <defs>
        <clipPath id="clip0">
            <rect width="133.237" height="30.7513" fill="white"/>
        </clipPath>
    </defs>
</svg>
